<svg xmlns="http://www.w3.org/2000/svg" viewBox="0 0 172.2 253.11"><defs><style>.cls-1{fill:#0f1768;}.cls-2{fill:#fff;}</style></defs><g id="Layer_2" data-name="Layer 2"><g id="Layer_1-2" data-name="Layer 1"><path class="cls-1" d="M158.8,40A86.09,86.09,0,1,0,13.4,132.22L86.11,253.11l72.7-120.89a86.08,86.08,0,0,0,0-92.23Z"/><circle class="cls-2" cx="86.1" cy="85.27" r="57.84"/><rect class="cls-1" x="72.07" y="85.65" width="11.43" height="51.75" rx="5.72"/><rect class="cls-1" x="88.4" y="85.65" width="11.43" height="51.75" rx="5.72"/><circle class="cls-1" cx="86.1" cy="46.83" r="12.72"/><path class="cls-1" d="M77.14,62.27H94.76a5.07,5.07,0,0,1,5.07,5.07v42.3a0,0,0,0,1,0,0H72.07a0,0,0,0,1,0,0V67.34A5.07,5.07,0,0,1,77.14,62.27Z"/><rect class="cls-1" x="98.03" y="60.35" width="10.23" height="45.24" rx="5.12" transform="translate(-26.47 56.09) rotate(-27.1)"/><rect class="cls-1" x="63.94" y="60.35" width="10.23" height="45.24" rx="5.12" transform="translate(92.74 188.28) rotate(-152.9)"/></g></g></svg>