<svg xmlns="http://www.w3.org/2000/svg" viewBox="0 0 172.2 253.11"><defs><style>.cls-1{fill:#0f1768;}.cls-2{fill:#fff;}.cls-3{fill:none;stroke:#0f1768;stroke-linecap:round;stroke-miterlimit:10;stroke-width:7px;}</style></defs><g id="Layer_2" data-name="Layer 2"><g id="Layer_1-2" data-name="Layer 1"><path class="cls-1" d="M158.8,40A86.09,86.09,0,1,0,13.4,132.22L86.11,253.11l72.7-120.89a86.08,86.08,0,0,0,0-92.23Z"/><circle class="cls-2" cx="86.1" cy="85.27" r="57.84"/><path class="cls-3" d="M129.17,85.36c-4,6-8.77,5.5-8.77,5.5-8.23,0-9.88-11.9-17.12-12C95.79,78.84,93.4,90.64,86,90.54s-9.5-12-16.77-12c-7,0-8,12-16.95,12,0,0-5.38.54-9.23-5.82"/><path class="cls-3" d="M129.17,63.11c-4,6-8.77,5.5-8.77,5.5-8.23,0-9.88-11.9-17.12-12C95.79,56.59,93.4,68.39,86,68.29s-9.5-12-16.77-12c-7,0-8,12-16.95,12,0,0-5.38.54-9.23-5.82"/><path class="cls-3" d="M129.17,107.61c-4,6-8.77,5.5-8.77,5.5-8.23,0-9.88-11.9-17.12-12-7.49-.06-9.88,11.74-17.3,11.64s-9.5-12-16.77-12c-7,0-8,12-16.95,12,0,0-5.38.54-9.23-5.82"/></g></g></svg>