<svg xmlns="http://www.w3.org/2000/svg" viewBox="0 0 172.2 253.11"><defs><style>.cls-1{fill:#0f1768;}.cls-2{fill:#fff;}</style></defs><g id="Layer_2" data-name="Layer 2"><g id="Layer_1-2" data-name="Layer 1"><path class="cls-1" d="M158.8,40A86.09,86.09,0,1,0,13.4,132.22L86.11,253.11l72.7-120.89a86.08,86.08,0,0,0,0-92.23Z"/><circle class="cls-2" cx="86.1" cy="85.27" r="57.84"/><rect class="cls-1" x="101.1" y="93.48" width="9" height="20"/><rect class="cls-1" x="57.1" y="93.34" width="6.81" height="15.14"/><rect class="cls-1" x="68.07" y="89.18" width="6.81" height="15.14" transform="translate(168.23 25.27) rotate(90)"/><rect class="cls-1" x="78.29" y="93.34" width="6.81" height="15.14"/><rect class="cls-1" x="60.1" y="82.48" width="5.4" height="12"/><rect class="cls-1" x="68.8" y="79.18" width="5.4" height="12" transform="translate(156.68 13.68) rotate(90)"/><rect class="cls-1" x="76.9" y="82.48" width="5.4" height="12"/><path class="cls-1" d="M103.51,56.74,87.89,95.65a2.06,2.06,0,0,0,1.91,2.83h31.25A2.06,2.06,0,0,0,123,95.65L107.34,56.74A2.07,2.07,0,0,0,103.51,56.74Z"/><path class="cls-1" d="M103.51,43.74,87.89,82.65a2.06,2.06,0,0,0,1.91,2.83h31.25A2.06,2.06,0,0,0,123,82.65L107.34,43.74A2.07,2.07,0,0,0,103.51,43.74Z"/><path class="cls-1" d="M125.91,118.48a1.68,1.68,0,0,0,1.55-2.35c-3.43-7.75-20.64-13.65-41.36-13.65s-37.93,5.9-41.37,13.65a1.69,1.69,0,0,0,1.55,2.35Z"/></g></g></svg>