<svg xmlns="http://www.w3.org/2000/svg" viewBox="0 0 172.2 253.11"><defs><style>.cls-1{fill:#0f1768;}.cls-2{fill:#fff;}</style></defs><g id="Layer_2" data-name="Layer 2"><g id="Layer_1-2" data-name="Layer 1"><path class="cls-1" d="M158.8,40A86.09,86.09,0,1,0,13.4,132.22L86.11,253.11l72.7-120.89a86.08,86.08,0,0,0,0-92.23Z"/><circle class="cls-2" cx="86.1" cy="85.27" r="57.84"/><rect class="cls-1" x="57.2" y="93.36" width="8.46" height="38.28" rx="4.23"/><rect class="cls-1" x="69.28" y="93.36" width="8.46" height="38.28" rx="4.23"/><circle class="cls-1" cx="67.58" cy="62.88" r="10.6"/><path class="cls-1" d="M60.95,76.07H74a3.75,3.75,0,0,1,3.75,3.75v31.29a0,0,0,0,1,0,0H57.2a0,0,0,0,1,0,0V79.82A3.75,3.75,0,0,1,60.95,76.07Z"/><rect class="cls-1" x="76.4" y="74.64" width="7.57" height="33.47" rx="3.78" transform="translate(-32.82 46.56) rotate(-27.1)"/><rect class="cls-1" x="51.19" y="74.64" width="7.57" height="33.47" rx="3.78" transform="translate(62.28 197.77) rotate(-152.9)"/><rect class="cls-1" x="94.24" y="93.36" width="8.46" height="38.28" rx="4.23"/><rect class="cls-1" x="106.32" y="93.36" width="8.46" height="38.28" rx="4.23"/><circle class="cls-1" cx="104.62" cy="62.88" r="10.6"/><path class="cls-1" d="M98,76.07h13a3.75,3.75,0,0,1,3.75,3.75v31.29a0,0,0,0,1,0,0H94.24a0,0,0,0,1,0,0V79.82A3.75,3.75,0,0,1,98,76.07Z"/><rect class="cls-1" x="113.44" y="74.64" width="7.57" height="33.47" rx="3.78" transform="translate(-28.76 63.43) rotate(-27.1)"/><rect class="cls-1" x="88.22" y="74.64" width="7.57" height="33.47" rx="3.78" transform="translate(132.29 214.64) rotate(-152.9)"/><path id="합치기_60" data-name="합치기 60" class="cls-1" d="M79.72,49.2a12.21,12.21,0,0,1-4.66-8.83c0-.15,0-.29,0-.43.16-2.16,1.38-5.7,5.25-5.83a6.41,6.41,0,0,1,5.61,3,6.41,6.41,0,0,1,5.61-3c3.87.13,5.09,3.67,5.25,5.83a11.92,11.92,0,0,1-4.65,9.25,17.57,17.57,0,0,1-6.21,3.65A17.55,17.55,0,0,1,79.72,49.2Z"/></g></g></svg>