<svg xmlns="http://www.w3.org/2000/svg" viewBox="0 0 50 50"><defs><style>.cls-1{fill:#ffb719;}.cls-2{fill:none;}.cls-3{fill:#fff;}</style></defs><g id="Layer_2" data-name="Layer 2"><g id="Layer_1-2" data-name="Layer 1"><g id="그룹_994" data-name="그룹 994"><g id="타원_112-2" data-name="타원 112-2"><circle class="cls-1" cx="25" cy="25" r="25"/><circle class="cls-1" cx="25" cy="25" r="24.69"/></g><g id="map_black_24dp" data-name="map black 24dp"><path id="패스_511" data-name="패스 511" class="cls-2" d="M10.31,10.31H39.69V39.69H10.31Z"/><path id="패스_512" data-name="패스 512" class="cls-3" d="M35.4,14l-.19,0-6.54,2.53L21.33,14l-6.91,2.33a.63.63,0,0,0-.44.58V35.4a.62.62,0,0,0,.6.62h0l.19,0,6.54-2.54L28.67,36l6.9-2.32A.62.62,0,0,0,36,33.1V14.6a.61.61,0,0,0-.6-.62ZM22.55,17l4.9,1.71V33l-4.9-1.71Zm-6.12,1.21L20.1,17V31.3l-3.67,1.42ZM33.57,31.78,29.9,33V18.71l3.67-1.42Z"/></g></g></g></g></svg>