<svg xmlns="http://www.w3.org/2000/svg" viewBox="0 0 51.38 51.38"><defs><style>.cls-1{fill:#fff;}.cls-2,.cls-3{fill:none;}.cls-2{stroke:#ffb719;stroke-width:2px;}.cls-4{fill:#ffb719;}</style></defs><g id="Layer_2" data-name="Layer 2"><g id="Layer_1-2" data-name="Layer 1"><g id="그룹_994" data-name="그룹 994"><g id="타원_112-2" data-name="타원 112-2"><circle class="cls-1" cx="25.69" cy="25.69" r="25"/><circle class="cls-2" cx="25.69" cy="25.69" r="24.69"/></g><g id="map_black_24dp" data-name="map black 24dp"><path id="패스_511" data-name="패스 511" class="cls-3" d="M11,11H40.38V40.38H11Z"/><path id="패스_512" data-name="패스 512" class="cls-4" d="M36.09,14.67l-.19,0-6.54,2.53L22,14.67,15.11,17a.62.62,0,0,0-.44.58V36.09a.6.6,0,0,0,.6.61h0l.2,0L22,34.13l7.35,2.57,6.9-2.33a.6.6,0,0,0,.44-.58V15.28a.6.6,0,0,0-.6-.61Zm-12.85,3,4.9,1.72V33.68L23.24,32Zm-6.12,1.22,3.67-1.24V32l-3.67,1.42ZM34.25,32.47,30.58,33.7V19.4L34.25,18Z"/></g></g></g></g></svg>