<svg xmlns="http://www.w3.org/2000/svg" viewBox="0 0 17.49 18.02"><defs><style>.cls-1{fill:#fff;}</style></defs><g id="레이어_2" data-name="레이어 2"><g id="레이어_1-2" data-name="레이어 1"><path class="cls-1" d="M11.68.05,10.24,1a.4.4,0,0,1-.19,0H8.8l.4.37a3.78,3.78,0,0,1,1,4.12,3.83,3.83,0,0,1-1,1.44c-.3.26-.6.51-.89.78a1.26,1.26,0,0,0-.42.74,1.06,1.06,0,0,0,.39,1l.88.7c.38.33.77.66,1.13,1a3.41,3.41,0,0,1,.46,4.27A5,5,0,0,1,8,17.55,8.77,8.77,0,0,1,4.43,18a6.58,6.58,0,0,1-2.62-.66A3.21,3.21,0,0,1,.18,15.61a2.9,2.9,0,0,1,.65-3,5,5,0,0,1,2.46-1.45A13.47,13.47,0,0,1,6,10.71l.24,0A2.09,2.09,0,0,1,5.8,8.22l-.27,0a4,4,0,0,1-3.22-1,3.75,3.75,0,0,1-.64-4.56A4.78,4.78,0,0,1,4.35.47,7.6,7.6,0,0,1,6.89,0C8.45,0,10,0,11.56,0h.12ZM6.15,17a4.55,4.55,0,0,0,2.18-.45,2.24,2.24,0,0,0,1.29-2.16,2.19,2.19,0,0,0-.81-1.62c-.49-.43-1-.81-1.53-1.22a.69.69,0,0,0-.51-.17c-.6,0-1.2.08-1.79.16a4.3,4.3,0,0,0-1.85.69,2.26,2.26,0,0,0-1,2.43A2.57,2.57,0,0,0,3.52,16.4,5.35,5.35,0,0,0,6.15,17ZM3.27,3.34a5.56,5.56,0,0,0,.41,2.12A3.54,3.54,0,0,0,4.84,7.12a2.12,2.12,0,0,0,2.24.25,1.94,1.94,0,0,0,1.23-1.8A5.44,5.44,0,0,0,7.4,2.15a3.08,3.08,0,0,0-.74-.79A2.07,2.07,0,0,0,3.55,2,2.73,2.73,0,0,0,3.27,3.34ZM17.49,7.53H15.15V5.21H14V7.54H11.65V8.73H14v2.35h1.18V8.73h2.33Z"/></g></g></svg>