<svg xmlns="http://www.w3.org/2000/svg" viewBox="0 0 287.67 285.63"><defs><style>.cls-1{fill:#343a40;}</style></defs><g id="레이어_2" data-name="레이어 2"><g id="레이어_1-2" data-name="레이어 1"><g id="레이어_2-2" data-name="레이어 2"><g id="Layer_1" data-name="Layer 1"><g id="그룹_951" data-name="그룹 951"><g id="그룹_855" data-name="그룹 855"><path id="패스_973" data-name="패스 973" class="cls-1" d="M52.56,277.32a7.84,7.84,0,0,1-7.41,8.25h0a5.89,5.89,0,0,1-.84,0H8.3A7.85,7.85,0,0,1,0,278.2V262H9.37v13.92a1.29,1.29,0,0,0,1.07,1.44,1.15,1.15,0,0,0,.37,0h31a1.27,1.27,0,0,0,1.44-1.07h0a1.09,1.09,0,0,0,0-.36V253.79a1.27,1.27,0,0,0-1.09-1.44,1,1,0,0,0-.35,0H8.28A7.86,7.86,0,0,1,0,244.92H0V223.09a7.85,7.85,0,0,1,7.42-8.26h0a5.75,5.75,0,0,1,.83,0H43.85a7.84,7.84,0,0,1,8.26,7.4v0a5.89,5.89,0,0,1,0,.84v13.2H42.77V224.5a1.27,1.27,0,0,0-1.07-1.44h0a1.09,1.09,0,0,0-.36,0H10.8a1.26,1.26,0,0,0-1.43,1.06h0a1.15,1.15,0,0,0,0,.37v18.14a1.27,1.27,0,0,0,1.07,1.44,1.09,1.09,0,0,0,.36,0H44.3a7.85,7.85,0,0,1,8.26,7.42h0v25.81Z"/><path id="패스_974" data-name="패스 974" class="cls-1" d="M105.9,254.51H73.22v31.07H63.88V223.06a7.85,7.85,0,0,1,7.41-8.25h0a5.89,5.89,0,0,1,.84,0H108v8.25H74.84a1.55,1.55,0,0,0-1.62,1.47v21.72h32.69Z"/><path id="패스_975" data-name="패스 975" class="cls-1" d="M126,285.58h-9.16V211.67H126Z"/><path id="패스_976" data-name="패스 976" class="cls-1" d="M180.17,277.32a7.85,7.85,0,0,1-7.43,8.25h0a5.75,5.75,0,0,1-.83,0H145.24a7.84,7.84,0,0,1-8.26-7.4v0a5.75,5.75,0,0,1,0-.83V264.75a7.16,7.16,0,0,1,6.43-7.82h0a7.84,7.84,0,0,1,1.37,0H171v-9a1.27,1.27,0,0,0-1.07-1.44h0a1,1,0,0,0-.35,0H148.46a1.27,1.27,0,0,0-1.44,1.07v0a1,1,0,0,0,0,.35v5.12h-9.17V246.7a7.86,7.86,0,0,1,7.43-8.26,5.89,5.89,0,0,1,.84,0h25.77a7.85,7.85,0,0,1,8.26,7.42h0v.83Zm-10.6.18a1.27,1.27,0,0,0,1.44-1.08,2.16,2.16,0,0,0,0-.36V264.84H147.57a1.27,1.27,0,0,0-1.44,1.07,1.15,1.15,0,0,0,0,.37v9.79a1.26,1.26,0,0,0,1.07,1.43h0a1.09,1.09,0,0,0,.36,0Z"/><path id="패스_977" data-name="패스 977" class="cls-1" d="M232.79,277.32a7.85,7.85,0,0,1-7.43,8.25h0a5.75,5.75,0,0,1-.83,0H197.86a7.85,7.85,0,0,1-8.26-7.42h0a5.75,5.75,0,0,1,0-.83v-7.54h9.15v6.28a1.27,1.27,0,0,0,1.08,1.44h0a1.09,1.09,0,0,0,.36,0h22a1.26,1.26,0,0,0,1.43-1.07h0a1.09,1.09,0,0,0,0-.36v-9.61a1.26,1.26,0,0,0-1.06-1.43h0a1.09,1.09,0,0,0-.36,0H197.86a7.17,7.17,0,0,1-7.81-6.46,6.18,6.18,0,0,1,0-1.36V246.69a7.85,7.85,0,0,1,7.42-8.26h26.16a7.86,7.86,0,0,1,8.26,7.43,5.75,5.75,0,0,1,0,.83v6.38h-9.16V248a1.27,1.27,0,0,0-1.07-1.44h0a1,1,0,0,0-.35,0H200.64a1.27,1.27,0,0,0-1.43,1.08,1.09,1.09,0,0,0,0,.36v7.72a1.29,1.29,0,0,0,1.07,1.44H225a7.16,7.16,0,0,1,7.81,6.43v0a6.18,6.18,0,0,1,0,1.36Z"/><path id="패스_978" data-name="패스 978" class="cls-1" d="M287.66,285.58H278.5V248a1.27,1.27,0,0,0-1.09-1.43h0a1,1,0,0,0-.35,0H252.72v39.06h-9.15v-74h9.15v26.76h26.67a7.86,7.86,0,0,1,8.26,7.43,5.75,5.75,0,0,1,0,.83Z"/></g><g id="그룹_858" data-name="그룹 858"><g id="그룹_857" data-name="그룹 857"><g id="그룹_856" data-name="그룹 856"><path id="패스_979" data-name="패스 979" class="cls-1" d="M105.92,102.09h20.25A19.82,19.82,0,0,1,127,84.48H111.3a2.72,2.72,0,0,1-3.08-2.27,2.82,2.82,0,0,1,0-.82V42.7a2.71,2.71,0,0,1,2.28-3.08h0a2.62,2.62,0,0,1,.79,0h65.14a2.71,2.71,0,0,1,3.08,2.28,2.68,2.68,0,0,1,0,.8V67.79h19.92V39.62A16.76,16.76,0,0,0,183.59,22h0a17,17,0,0,0-1.75,0H105.92A16.76,16.76,0,0,0,88.31,37.86h0a17,17,0,0,0,0,1.75V84.45a16.75,16.75,0,0,0,15.85,17.61h0a17,17,0,0,0,1.75,0Z"/><path id="패스_980" data-name="패스 980" class="cls-1" d="M195.46,89.35a17.25,17.25,0,0,0-12.74-4.89H161.58a19.79,19.79,0,0,1,.88,17.61h14.89a2.73,2.73,0,0,1,3.09,2.29,2.68,2.68,0,0,1,0,.8V152.3a2.71,2.71,0,0,1-2.28,3.08,2.75,2.75,0,0,1-.81,0H111.26a2.71,2.71,0,0,1-3.08-2.26h0a2.75,2.75,0,0,1,0-.81V122.61H88.25v32.75A16.76,16.76,0,0,0,104.08,173h0a17,17,0,0,0,1.75,0h76.82a16.76,16.76,0,0,0,17.61-15.86,17,17,0,0,0,0-1.75v-53.3A17.23,17.23,0,0,0,195.46,89.35Z"/></g><path id="패스_981" data-name="패스 981" class="cls-1" d="M144.31,121.93A27.8,27.8,0,1,1,172.1,94.12v0h0A27.83,27.83,0,0,1,144.31,121.93Zm0-39.65a11.86,11.86,0,1,0,11.85,11.87h0a11.85,11.85,0,0,0-11.84-11.86Z"/></g><path id="사각형_915" data-name="사각형 915" class="cls-1" d="M117.1,0h18.31a8.9,8.9,0,0,1,8.89,8.9h0a8.9,8.9,0,0,1-8.89,8.9H117.1a8.89,8.89,0,0,1-8.9-8.88v0h0A8.9,8.9,0,0,1,117.1,0Z"/></g></g></g></g></g></g></svg>