<svg xmlns="http://www.w3.org/2000/svg" viewBox="0 0 287.65 285.59"><defs><style>.cls-1{fill:#fff;}</style></defs><g id="레이어_2" data-name="레이어 2"><g id="Layer_1" data-name="Layer 1"><g id="그룹_951" data-name="그룹 951"><g id="그룹_855" data-name="그룹 855"><path id="패스_973" data-name="패스 973" class="cls-1" d="M52.55,277.32a7.84,7.84,0,0,1-7.42,8.25,5.89,5.89,0,0,1-.84,0h-36A7.84,7.84,0,0,1,0,278.15c0-.28,0-.55,0-.83V262H9.36v13.92a1.28,1.28,0,0,0,1.07,1.44,1.15,1.15,0,0,0,.37,0h31a1.27,1.27,0,0,0,1.44-1.08,1.09,1.09,0,0,0,0-.36V253.79a1.28,1.28,0,0,0-1.09-1.44,1,1,0,0,0-.35,0H8.27A7.86,7.86,0,0,1,0,244.92c0-.28,0-.55,0-.83v-21a7.85,7.85,0,0,1,7.43-8.26,5.75,5.75,0,0,1,.83,0H43.84a7.84,7.84,0,0,1,8.26,7.42,5.89,5.89,0,0,1,0,.84v13.2H42.76V224.5a1.27,1.27,0,0,0-1.08-1.44,1.09,1.09,0,0,0-.36,0H10.79a1.26,1.26,0,0,0-1.43,1.07,1.15,1.15,0,0,0,0,.37v18.14a1.27,1.27,0,0,0,1.07,1.44,1.09,1.09,0,0,0,.36,0h33.5a7.85,7.85,0,0,1,8.26,7.43c0,.27,0,.55,0,.83Z"/><path id="패스_974" data-name="패스 974" class="cls-1" d="M105.89,254.51H73.21v31.07H63.87V223.06a7.84,7.84,0,0,1,7.42-8.25,5.89,5.89,0,0,1,.84,0H108v8.25H74.83a1.55,1.55,0,0,0-1.62,1.47v21.72H105.9Z"/><path id="패스_975" data-name="패스 975" class="cls-1" d="M126,285.58h-9.16V211.67H126Z"/><path id="패스_976" data-name="패스 976" class="cls-1" d="M180.16,277.32a7.85,7.85,0,0,1-7.43,8.25,5.75,5.75,0,0,1-.83,0H145.23a7.84,7.84,0,0,1-8.26-7.42,5.75,5.75,0,0,1,0-.83V264.75a7.16,7.16,0,0,1,6.44-7.82,7.84,7.84,0,0,1,1.37,0H171v-9a1.27,1.27,0,0,0-1.08-1.44,1,1,0,0,0-.35,0H148.45A1.27,1.27,0,0,0,147,247.6a1,1,0,0,0,0,.35v5.12h-9.17V246.7a7.86,7.86,0,0,1,7.43-8.26,5.89,5.89,0,0,1,.84,0h25.77a7.85,7.85,0,0,1,8.26,7.43c0,.27,0,.55,0,.83Zm-10.6.18a1.28,1.28,0,0,0,1.44-1.08,2.16,2.16,0,0,0,0-.36V264.84H147.56a1.27,1.27,0,0,0-1.44,1.07,1.15,1.15,0,0,0,0,.37v9.79a1.26,1.26,0,0,0,1.08,1.43,1.09,1.09,0,0,0,.36,0Z"/><path id="패스_977" data-name="패스 977" class="cls-1" d="M232.78,277.32a7.85,7.85,0,0,1-7.43,8.25,5.75,5.75,0,0,1-.83,0H197.85a7.85,7.85,0,0,1-8.26-7.42,5.75,5.75,0,0,1,0-.83v-7.54h9.15v6.28a1.27,1.27,0,0,0,1.08,1.44,1.09,1.09,0,0,0,.36,0h22a1.26,1.26,0,0,0,1.43-1.08,1.09,1.09,0,0,0,0-.36v-9.61a1.26,1.26,0,0,0-1.07-1.43,1.09,1.09,0,0,0-.36,0H197.85a7.17,7.17,0,0,1-7.81-6.46,6.18,6.18,0,0,1,0-1.36V246.69a7.85,7.85,0,0,1,7.42-8.26c.28,0,.56,0,.83,0h25.33a7.86,7.86,0,0,1,8.26,7.43,5.75,5.75,0,0,1,0,.83v6.38h-9.16V248a1.27,1.27,0,0,0-1.08-1.44,1,1,0,0,0-.35,0H200.63a1.27,1.27,0,0,0-1.43,1.08,1.09,1.09,0,0,0,0,.36v7.72a1.28,1.28,0,0,0,1.07,1.44H225a7.15,7.15,0,0,1,7.81,6.45,6.18,6.18,0,0,1,0,1.36Z"/><path id="패스_978" data-name="패스 978" class="cls-1" d="M287.65,285.58h-9.16V248a1.27,1.27,0,0,0-1.09-1.43,1,1,0,0,0-.35,0H252.71v39.06h-9.15V211.67h9.15v26.76h26.67a7.86,7.86,0,0,1,8.26,7.43,5.75,5.75,0,0,1,0,.83Z"/></g><g id="그룹_858" data-name="그룹 858"><g id="그룹_857" data-name="그룹 857"><g id="그룹_856" data-name="그룹 856"><path id="패스_979" data-name="패스 979" class="cls-1" d="M105.91,102.09h20.25A19.79,19.79,0,0,1,127,84.48H111.29a2.72,2.72,0,0,1-3.08-2.27,2.82,2.82,0,0,1,0-.82V42.7a2.71,2.71,0,0,1,2.29-3.08,2.62,2.62,0,0,1,.79,0h65.14a2.71,2.71,0,0,1,3.08,3.08V67.79h19.92V39.62A16.76,16.76,0,0,0,183.57,22a17,17,0,0,0-1.75,0H105.91A16.76,16.76,0,0,0,88.3,37.87a17,17,0,0,0,0,1.75V84.45a16.75,16.75,0,0,0,15.86,17.61,17,17,0,0,0,1.75,0Z"/><path id="패스_980" data-name="패스 980" class="cls-1" d="M195.45,89.35a17.28,17.28,0,0,0-12.74-4.89H161.57a19.79,19.79,0,0,1,.88,17.61h14.89a2.73,2.73,0,0,1,3.09,2.29,3.06,3.06,0,0,1,0,.8V152.3a2.71,2.71,0,0,1-2.28,3.08,2.75,2.75,0,0,1-.81,0H111.25a2.7,2.7,0,0,1-3.08-2.27,2.75,2.75,0,0,1,0-.81V122.61H88.24v32.75A16.76,16.76,0,0,0,104.1,173a17,17,0,0,0,1.75,0h76.82a16.76,16.76,0,0,0,17.61-15.86,17,17,0,0,0,0-1.75V102.09A17.23,17.23,0,0,0,195.45,89.35Z"/></g><path id="패스_981" data-name="패스 981" class="cls-1" d="M144.3,121.93a27.8,27.8,0,1,1,27.79-27.79h0A27.83,27.83,0,0,1,144.3,121.93Zm0-39.65a11.86,11.86,0,1,0,11.85,11.86A11.85,11.85,0,0,0,144.3,82.28Z"/></g><path id="사각형_915" data-name="사각형 915" class="cls-1" d="M117.09,0H135.4a8.9,8.9,0,0,1,8.89,8.9h0a8.91,8.91,0,0,1-8.89,8.9H117.09a8.89,8.89,0,0,1-8.9-8.9h0a8.9,8.9,0,0,1,8.9-8.9Z"/></g></g></g></g></svg>