<svg xmlns="http://www.w3.org/2000/svg" viewBox="0 0 172.2 253.11"><defs><style>.cls-1,.cls-4{fill:#0f1768;}.cls-2{fill:#fff;}.cls-3,.cls-5{fill:none;}.cls-3,.cls-4,.cls-5{stroke:#0f1768;stroke-miterlimit:10;}.cls-3,.cls-4{stroke-width:6.49px;}.cls-5{stroke-width:5.52px;}</style></defs><g id="Layer_2" data-name="Layer 2"><g id="Layer_1-2" data-name="Layer 1"><path class="cls-1" d="M158.8,40A86.09,86.09,0,1,0,13.4,132.22L86.11,253.11l72.7-120.89a86.08,86.08,0,0,0,0-92.23Z"/><circle class="cls-2" cx="86.1" cy="85.27" r="57.84"/><ellipse class="cls-3" cx="82.53" cy="61.16" rx="30.99" ry="11.86"/><path class="cls-4" d="M82.53,73c-17.11,0-31-5.31-31-11.86v42c0,13,13.88,18.83,31,18.83s30.7-5.2,31-18.19V61.16C113.52,67.71,99.65,73,82.53,73Z"/><path class="cls-5" d="M112.22,73.61s18.31-3.29,18.31,12-18.31,13.4-18.31,13.4"/></g></g></svg>