<svg xmlns="http://www.w3.org/2000/svg" viewBox="0 0 172.2 253.11"><defs><style>.cls-1{fill:#0f1768;}.cls-2{fill:#fff;}</style></defs><g id="Layer_2" data-name="Layer 2"><g id="Layer_1-2" data-name="Layer 1"><path class="cls-1" d="M158.8,40A86.09,86.09,0,1,0,13.4,132.22L86.11,253.11l72.7-120.89a86.08,86.08,0,0,0,0-92.23Z"/><circle class="cls-2" cx="86.1" cy="85.27" r="57.84"/><path class="cls-1" d="M42.66,80.11l9.58-12.19a2.09,2.09,0,0,1,3.19-.1l9.15,10.29V45.93a2.14,2.14,0,0,1,2.14-2.14H85a2.14,2.14,0,0,1,2.14,2.14V62h9.66A2.14,2.14,0,0,1,99,64.09V71.4L112.33,52a2.15,2.15,0,0,1,3.53,0l13.68,19.8v42.62A4.52,4.52,0,0,1,125,119H47.19a4.52,4.52,0,0,1-4.53-4.52Z"/><rect class="cls-2" x="112.81" y="77.93" width="11.06" height="11.06"/><rect class="cls-2" x="112.81" y="94.52" width="11.06" height="11.06"/></g></g></svg>