<svg xmlns="http://www.w3.org/2000/svg" viewBox="0 0 172.2 253.11"><defs><style>.cls-1{fill:#0f1768;}.cls-2{fill:#fff;}.cls-3,.cls-4{fill:none;stroke:#0f1768;stroke-miterlimit:10;}.cls-3{stroke-linecap:round;stroke-width:4.82px;}.cls-4{stroke-width:6px;}</style></defs><g id="Layer_2" data-name="Layer 2"><g id="Layer_1-2" data-name="Layer 1"><path class="cls-1" d="M158.8,40A86.09,86.09,0,1,0,13.4,132.22L86.11,253.11l72.7-120.89a86.08,86.08,0,0,0,0-92.23Z"/><circle class="cls-2" cx="86.1" cy="85.27" r="57.84"/><path class="cls-1" d="M64.23,121.11c.26,0,.44-.7.34-1.32a9.08,9.08,0,0,0-17.94,0c-.11.62.07,1.32.33,1.32Z"/><rect class="cls-3" x="70.47" y="39.07" width="31" height="36.54" rx="3.75"/><rect class="cls-1" x="51.85" y="74.61" width="7.5" height="45" rx="3.75"/><path class="cls-1" d="M125.23,121.11c.26,0,.44-.7.34-1.32a9.08,9.08,0,0,0-17.94,0c-.11.62.07,1.32.33,1.32Z"/><rect class="cls-1" x="112.85" y="74.61" width="7.5" height="45" rx="3.75"/><path class="cls-4" d="M55.47,81.11s31,27,61.25-2.09"/><polyline class="cls-3" points="70.47 62.84 82.22 49.95 87.97 56.61 90.97 53.61 100.97 62.61"/></g></g></svg>