<svg xmlns="http://www.w3.org/2000/svg" viewBox="0 0 172.2 253.11"><defs><style>.cls-1{fill:#0f1768;}.cls-2{fill:#fff;}</style></defs><g id="Layer_2" data-name="Layer 2"><g id="Layer_1-2" data-name="Layer 1"><path class="cls-1" d="M158.8,40A86.09,86.09,0,1,0,13.4,132.22L86.11,253.11l72.7-120.89a86.08,86.08,0,0,0,0-92.23Z"/><circle class="cls-2" cx="86.1" cy="85.27" r="57.84"/><rect class="cls-1" x="57.06" y="85.62" width="9.99" height="45.21" rx="4.99"/><rect class="cls-1" x="71.32" y="85.62" width="9.99" height="45.21" rx="4.99"/><circle class="cls-1" cx="69.31" cy="49.63" r="12.52"/><path class="cls-1" d="M61.48,65.2h15.4a4.43,4.43,0,0,1,4.43,4.43v36.95a0,0,0,0,1,0,0H57.06a0,0,0,0,1,0,0V69.62A4.43,4.43,0,0,1,61.48,65.2Z"/><rect class="cls-1" x="84.25" y="49.97" width="8.94" height="39.52" rx="4.47" transform="translate(18.99 158.44) rotate(-90)"/><rect class="cls-1" x="49.96" y="63.52" width="8.94" height="39.52" rx="4.47" transform="translate(64.94 182.2) rotate(-152.9)"/><rect class="cls-1" x="90.63" y="85.62" width="9.99" height="45.21" rx="4.99"/><rect class="cls-1" x="104.89" y="85.62" width="9.99" height="45.21" rx="4.99"/><circle class="cls-1" cx="102.88" cy="49.63" r="12.52"/><path class="cls-1" d="M95.06,65.2h15.4a4.43,4.43,0,0,1,4.43,4.43v36.95a0,0,0,0,1,0,0H90.63a0,0,0,0,1,0,0V69.62A4.43,4.43,0,0,1,95.06,65.2Z"/><rect class="cls-1" x="113.3" y="63.52" width="8.94" height="39.52" rx="4.47" transform="translate(-25.01 62.79) rotate(-27.1)"/><rect class="cls-1" x="83.53" y="63.52" width="8.94" height="39.52" rx="4.47" transform="translate(128.4 197.5) rotate(-152.9)"/></g></g></svg>