<svg xmlns="http://www.w3.org/2000/svg" viewBox="0 0 172.2 253.11"><defs><style>.cls-1{fill:#0f1768;}.cls-2{fill:#fff;}</style></defs><g id="Layer_2" data-name="Layer 2"><g id="Layer_1-2" data-name="Layer 1"><path class="cls-1" d="M158.8,40A86.09,86.09,0,1,0,13.4,132.22L86.11,253.11l72.7-120.89a86.08,86.08,0,0,0,0-92.23Z"/><circle class="cls-2" cx="86.1" cy="85.27" r="57.84"/><path id="합치기_60" data-name="합치기 60" class="cls-1" d="M64.3,109.48A42.54,42.54,0,0,1,48.12,78.82c0-.52,0-1,.05-1.48.56-7.51,4.79-19.81,18.21-20.23A22.21,22.21,0,0,1,85.87,67.63a22.25,22.25,0,0,1,19.49-10.52c13.42.42,17.65,12.71,18.21,20.2a41.58,41.58,0,0,1-16.13,32.15,61.49,61.49,0,0,1-21.57,12.67A61.59,61.59,0,0,1,64.3,109.48Z"/></g></g></svg>