<svg xmlns="http://www.w3.org/2000/svg" viewBox="0 0 172.2 253.11"><defs><style>.cls-1{fill:#0f1768;}.cls-2{fill:#fff;}</style></defs><g id="Layer_2" data-name="Layer 2"><g id="Layer_1-2" data-name="Layer 1"><path class="cls-1" d="M158.8,40A86.09,86.09,0,1,0,13.4,132.22L86.11,253.11l72.7-120.89a86.08,86.08,0,0,0,0-92.23Z"/><circle class="cls-2" cx="86.1" cy="85.27" r="57.84"/><path class="cls-1" d="M100.45,71.44l-25,40.19a2.33,2.33,0,0,0,1.81,3.48h50.11a2.33,2.33,0,0,0,1.81-3.48l-25-40.19A2,2,0,0,0,100.45,71.44Z"/><path class="cls-1" d="M80,62.11c1.72,0,3.43,3,5.15,3,.83,0,2-.93,3-1.89L80,45.38a1.87,1.87,0,0,0-3.45,0L69.11,61.71a12,12,0,0,0,5.7,3.4C77.38,65.11,78.24,62.11,80,62.11Z"/><path class="cls-1" d="M113.22,111.63,89.63,67.22c-1.17,1-2.55,1.89-3.51,1.89-2,0-4-3-6-3s-3,3-6,3a14.54,14.54,0,0,1-6.64-3.4L43.09,111.63a2.32,2.32,0,0,0,2,3.48H111.2A2.32,2.32,0,0,0,113.22,111.63Z"/></g></g></svg>