<svg xmlns="http://www.w3.org/2000/svg" viewBox="0 0 172.2 253.11"><defs><style>.cls-1{fill:#0f1768;}.cls-2{fill:#fff;}</style></defs><g id="Layer_2" data-name="Layer 2"><g id="Layer_1-2" data-name="Layer 1"><path class="cls-1" d="M158.8,40A86.09,86.09,0,1,0,13.4,132.22L86.11,253.11l72.7-120.89a86.08,86.08,0,0,0,0-92.23Z"/><circle class="cls-2" cx="86.1" cy="85.27" r="57.84"/><path class="cls-1" d="M100.26,128.31c0-5.1-1.29-6.29-2-7-1-1-3-1-5.5-.5,2-7,5.5-13.5,6.5-12.5s4.5,19.5,4.5,20.5,6.93,2.39,12.35.28a1.13,1.13,0,0,0,.7-1c.19-4.48-1.91-6.36-3.5-6.56a2.43,2.43,0,0,1-1.82-1.75c-1.6-6.77-5.73-21.19-5.73-23,0-2,2-7,0-17s-1-11-.33-12,4.33,0,9.33,0,8-5,9-7,2-3-3-5c-10-4-5-5-10-10l-.09-.08c-9-7.94-16-2-18-1-1.49.75-4.59-4.18-8.07-4.7a1.14,1.14,0,0,0-.94,2c2,1.82,3.47,7.38,3,8.73s0,2-2,10c-4,14-14,23-22,39s-1,21-3,21-4-2-6-4c-2.55-2.55-5-10-6-8s3,18,13,21c9.38,2.85,26.5,1.5,28.5,1.5C89.26,131.31,100.26,130.31,100.26,128.31Z"/></g></g></svg>