<svg xmlns="http://www.w3.org/2000/svg" viewBox="0 0 172.2 253.11"><defs><style>.cls-1,.cls-4{fill:#0f1768;}.cls-2{fill:#fff;}.cls-3{fill:none;}.cls-4{fill-rule:evenodd;}</style></defs><g id="Layer_2" data-name="Layer 2"><g id="Layer_1-2" data-name="Layer 1"><path class="cls-1" d="M158.8,40A86.09,86.09,0,1,0,13.4,132.22L86.11,253.11l72.7-120.89a86.08,86.08,0,0,0,0-92.23Z"/><circle class="cls-2" cx="86.1" cy="85.27" r="57.84"/><polygon class="cls-3" points="97.05 48.09 58.92 48.09 58.92 121.93 113.28 121.93 113.28 64.32 97.05 64.32 97.05 48.09"/><path class="cls-1" d="M100.21,45a2.65,2.65,0,0,0-1.88-.78H57.9a2.66,2.66,0,0,0-2.66,2.66v76.21a2.67,2.67,0,0,0,2.66,2.67h56.4a2.67,2.67,0,0,0,2.66-2.67V62.87a2.67,2.67,0,0,0-.78-1.89Zm11.42,74.66H60.57V50.33H96.39V65.57h15.24Z"/><g id="그룹_656" data-name="그룹 656"><g id="그룹_655" data-name="그룹 655"><rect id="사각형_771" data-name="사각형 771" class="cls-1" x="67.72" y="86.91" width="37.48" height="10.61" rx="0.59" transform="translate(-39.88 88.15) rotate(-45)"/><path id="패스_784" data-name="패스 784" class="cls-4" d="M97.55,73.63h0a.59.59,0,0,0,0,.83h0l6.67,6.67a.59.59,0,0,0,.83,0h0a3.89,3.89,0,0,0,0-5.5h0l-2-2a3.89,3.89,0,0,0-5.5,0Z"/></g><path id="패스_785" data-name="패스 785" class="cls-4" d="M66.76,112.66l8.53-1.94a.62.62,0,0,0,.46-.74.55.55,0,0,0-.16-.3L69,103.09a.62.62,0,0,0-.87,0,.75.75,0,0,0-.17.3L66,111.92a.62.62,0,0,0,.74.74Z"/></g></g></g></svg>